HIERARCHY
ROOT Hips
{
	OFFSET 0.00000 0.00000 0.00000
	CHANNELS 6 Xposition Yposition Zposition Zrotation Yrotation Xrotation 
	JOINT LHipJoint
	{
		OFFSET 0 0 0
		CHANNELS 3 Zrotation Yrotation Xrotation
		JOINT LeftUpLeg
		{
			OFFSET 1.57358 -1.76629 0.73362
			CHANNELS 3 Zrotation Yrotation Xrotation
			JOINT LeftLeg
			{
				OFFSET 2.40600 -6.61045 0.00000
				CHANNELS 3 Zrotation Yrotation Xrotation
				JOINT LeftFoot
				{
					OFFSET 2.66168 -7.31291 0.00000
					CHANNELS 3 Zrotation Yrotation Xrotation
					JOINT LeftToeBase
					{
						OFFSET 0.20870 -0.57341 2.12506
						CHANNELS 3 Zrotation Yrotation Xrotation
						End Site
						{
							OFFSET 0.00000 -0.00000 1.10557
						}
					}
				}
			}
		}
	}
	JOINT RHipJoint
	{
		OFFSET 0 0 0
		CHANNELS 3 Zrotation Yrotation Xrotation
		JOINT RightUpLeg
		{
			OFFSET -1.49299 -1.76629 0.73362
			CHANNELS 3 Zrotation Yrotation Xrotation
			JOINT RightLeg
			{
				OFFSET -2.43663 -6.69460 0.00000
				CHANNELS 3 Zrotation Yrotation Xrotation
				JOINT RightFoot
				{
					OFFSET -2.62959 -7.22474 0.00000
					CHANNELS 3 Zrotation Yrotation Xrotation
					JOINT RightToeBase
					{
						OFFSET -0.25784 -0.70841 2.21862
						CHANNELS 3 Zrotation Yrotation Xrotation
						End Site
						{
							OFFSET -0.00000 -0.00000 1.16452
						}
					}
				}
			}
		}
	}
	JOINT LowerBack
	{
		OFFSET 0 0 0
		CHANNELS 3 Zrotation Yrotation Xrotation
		JOINT Spine
		{
			OFFSET -0.00034 2.12399 -0.25450
			CHANNELS 3 Zrotation Yrotation Xrotation
			JOINT Spine1
			{
				OFFSET 0.05594 2.14379 -0.03318
				CHANNELS 3 Zrotation Yrotation Xrotation
				JOINT Neck
				{
					OFFSET 0 0 0
					CHANNELS 3 Zrotation Yrotation Xrotation
					JOINT Neck1
					{
						OFFSET -0.09835 1.62725 0.24211
						CHANNELS 3 Zrotation Yrotation Xrotation
						JOINT Head
						{
							OFFSET 0.10849 1.66041 -0.22648
							CHANNELS 3 Zrotation Yrotation Xrotation
							End Site
							{
								OFFSET 0.04385 1.68267 -0.10541
							}
						}
					}
				}
				JOINT LeftShoulder
				{
					OFFSET 0 0 0
					CHANNELS 3 Zrotation Yrotation Xrotation
					JOINT LeftArm
					{
						OFFSET 3.29108 0.79398 -0.68179
						CHANNELS 3 Zrotation Yrotation Xrotation
						JOINT LeftForeArm
						{
							OFFSET 5.15310 -0.00000 -0.00000
							CHANNELS 3 Zrotation Yrotation Xrotation
							JOINT LeftHand
							{
								OFFSET 3.75138 -0.00000 -0.00000
								CHANNELS 3 Zrotation Yrotation Xrotation
								JOINT LeftFingerBase
								{
									OFFSET 0 0 0
									CHANNELS 3 Zrotation Yrotation Xrotation
									JOINT LeftHandIndex1
									{
										OFFSET 0.52917 -0.00000 0.00000
										CHANNELS 3 Zrotation Yrotation Xrotation
										End Site
										{
											OFFSET 0.42663 -0.00000 0.00000
										}
									}
								}
								JOINT LThumb
								{
									OFFSET 0 0 0
									CHANNELS 3 Zrotation Yrotation Xrotation
									End Site
									{
										OFFSET 0.43315 -0.00000 0.43315
									}
								}
							}
						}
					}
				}
				JOINT RightShoulder
				{
					OFFSET 0 0 0
					CHANNELS 3 Zrotation Yrotation Xrotation
					JOINT RightArm
					{
						OFFSET -3.07414 1.06285 -0.44338
						CHANNELS 3 Zrotation Yrotation Xrotation
						JOINT RightForeArm
						{
							OFFSET -5.29613 -0.00000 0.00000
							CHANNELS 3 Zrotation Yrotation Xrotation
							JOINT RightHand
							{
								OFFSET -3.76144 -0.00000 -0.00000
								CHANNELS 3 Zrotation Yrotation Xrotation
								JOINT RightFingerBase
								{
									OFFSET 0 0 0
									CHANNELS 3 Zrotation Yrotation Xrotation
									JOINT RightHandIndex1
									{
										OFFSET -0.74732 -0.00000 0.00000
										CHANNELS 3 Zrotation Yrotation Xrotation
										End Site
										{
											OFFSET -0.60251 -0.00000 0.00000
										}
									}
								}
								JOINT RThumb
								{
									OFFSET 0 0 0
									CHANNELS 3 Zrotation Yrotation Xrotation
									End Site
									{
										OFFSET -0.61171 -0.00000 0.61171
									}
								}
							}
						}
					}
				}
			}
		}
	}
}
MOTION
Frames: 12
Frame Time: 0.08
0.00 0.00 0.00 0 0 0 0 0 0 -21 0 0 0 0 0 0 0 0 0 0 0 0 0 0 21 0 0 0 0 0 0 0 0 0 0 0 0 0 0 0 0 0 0 0 0 0 0 -16 0 0 21 0 0 11 0 0 0 -8 0 0 0 0 0 0 0 0 0 0 0 0 0 0 0 0 0 0 0 0 8 0 0 0 0 0 0 0 0 0 0 0 0 0 0 0 0 0
0.00 0.00 0.00 1.0804 -3.5672 3.1518 0.0000 0.0000 0.0000 -5.0892 -5.4233 -39.5435 18.4956 19.9456 85.5976 0.0667 -0.2874 -4.7807 0.1074 -2.1130 -5.8181 0.0000 0.0000 0.0000 35.5134 0.8568 -5.6781 -5.1732 -13.5762 41.5658 -0.7905 -13.3245 -26.3850 -0.0658 1.6548 -4.5527 1.5511 0.1171 11.8488 3.6497 0.5767 0.9309 2.8677 0.2879 -5.6989 -8.0995 -3.0684 -14.1239 2.7645 -2.8798 8.0659 1.9251 -1.4893 4.8764 0.0000 0.0000 0.0000 -91.2858 22.0561 38.5798 90.0068 -60.0000 -60.0059 -0.0000 0.0000 -25.5359 20.4673 5.4057 2.0138 -7.1250 0.0000 -0.0000 -5.2056 35.7072 1.1928 0.0000 0.0000 0.0000 82.1026 -13.0138 36.9795 -125.5618 54.6359 -90.2427 0.0000 -0.0000 -2.3708 -17.0520 25.6553 -7.5645 7.1250 -0.0000 -0.0000 7.6629 -3.5103 7.2455
0.00 0.00 0.00 0.6941 -6.4250 4.4006 0.0000 0.0000 0.0000 -6.0167 -3.5780 -44.7904 12.6948 18.6692 68.1747 0.2324 1.8739 -9.9925 0.3144 -3.6043 -9.9659 0.0000 0.0000 0.0000 33.8933 -3.1711 7.7260 -3.1339 -10.9087 31.9727 0.1470 -10.2950 -12.0068 -0.1564 2.5480 -7.0226 3.8497 2.5142 7.6463 2.4362 3.7581 0.6588 -0.0292 1.8210 -3.5184 -9.2282 -4.7991 -13.8015 5.0165 -5.3464 10.6240 2.5864 -2.6109 5.8566 -0.0000 0.0000 0.0000 -87.3125 28.6778 41.8529 102.9730 -59.3544 -71.2106 -0.0000 0.0000 -26.7539 17.8984 6.9090 2.2248 -7.1250 0.0000 -0.0000 -7.5323 37.1428 1.4663 -0.0000 0.0000 0.0000 82.8043 -12.7461 39.6015 -137.0545 49.7214 -99.3408 0.0000 -0.0000 -4.8036 -18.8309 25.9399 -8.4846 7.1250 -0.0000 -0.0000 6.6107 -2.9358 6.3061
0.00 0.00 0.00 0.9554 -4.7719 6.3928 0.0000 0.0000 0.0000 -4.0736 -10.5900 -44.8911 6.8096 15.1695 48.1505 0.0075 1.3711 -2.6870 0.4524 -4.3149 -11.9643 0.0000 0.0000 0.0000 32.6201 -4.5712 14.3124 -2.1501 -9.1720 26.3348 0.0920 -7.7311 3.1066 -0.3199 -3.6355 10.0535 4.4051 2.8512 5.8109 1.5349 4.1910 -1.1271 -1.2599 1.9865 -4.2265 -9.9264 -5.6878 -13.0194 6.6026 -6.8169 12.9684 3.0648 -3.2601 6.6611 0.0000 0.0000 0.0000 -85.1332 34.2573 41.7559 111.5610 -58.1685 -78.5575 -0.0000 0.0000 -26.3348 17.5508 7.6979 2.4259 -7.1250 0.0000 -0.0000 -7.9387 37.9389 1.3906 0.0000 0.0000 0.0000 81.8909 -13.7510 42.8838 -141.9433 46.8755 -102.9930 0.0000 -0.0000 -0.8041 -17.6163 27.2808 -8.2808 7.1250 -0.0000 -0.0000 7.4653 -1.7726 7.2936
0.00 0.00 0.00 0.4907 -9.3812 6.3300 0.0000 0.0000 0.0000 3.6927 -20.5395 -35.4958 2.5134 9.8623 28.5320 0.0059 3.5256 2.7390 0.9428 -6.1843 -17.3201 0.0000 0.0000 0.0000 32.1341 1.0126 21.4944 -2.6725 -10.1450 29.4474 0.0032 -4.8550 3.2881 -0.6109 -5.0027 13.9161 5.3746 4.3735 5.5071 0.7466 6.2595 -1.6366 -2.7641 2.9679 -4.2927 -10.7891 -6.2446 -13.2980 8.3854 -7.7990 15.0160 3.6742 -3.6256 7.5671 -0.0000 0.0000 0.0000 -84.0226 40.2689 39.6308 122.0448 -55.7400 -87.3547 -0.0000 0.0000 -27.5957 18.1621 7.7171 2.5223 -7.1250 0.0000 -0.0000 -7.4231 38.0002 1.2878 -0.0000 0.0000 0.0000 80.7879 -13.6269 46.5855 -143.8312 45.6289 -104.3570 0.0000 -0.0000 -1.3599 -16.3461 28.5185 -7.9714 7.1250 -0.0000 -0.0000 8.3311 -0.7314 8.3127
0.00 0.00 0.00 -1.0321 -15.1271 6.6255 0.0000 0.0000 0.0000 9.3581 -23.6663 -30.0852 1.8133 8.4657 24.1379 0.1044 2.9639 5.7921 1.4751 -7.6745 -21.7298 0.0000 0.0000 0.0000 32.3404 6.6116 20.1352 -6.1234 -14.5469 45.4751 0.1054 -5.8437 -1.0158 -0.1874 -2.7884 7.6902 6.1783 5.0303 5.7726 1.2343 7.2185 -1.4076 -2.7785 3.4366 -4.0925 -12.0336 -6.3214 -13.6111 10.1292 -7.9079 14.6064 4.4415 -3.5903 7.6266 0.0000 -0.0000 0.0000 -87.3279 42.0034 36.7886 127.4654 -53.9680 -91.7886 -0.0000 0.0000 -33.4161 18.0702 9.2049 2.9877 -7.1250 0.0000 -0.0000 -7.7294 39.5398 1.0474 0.0000 -0.0000 0.0000 80.2736 -13.2939 50.1926 -142.4728 46.5347 -103.3784 0.0000 -0.0000 -3.2804 -16.4527 29.5965 -8.2983 7.1250 -0.0000 -0.0000 8.3713 0.3689 8.5162
0.00 0.00 0.00 0.8904 -19.5161 4.6681 0.0000 0.0000 0.0000 4.5551 -18.0073 -26.0793 2.7004 10.1936 29.6059 0.0409 -1.9025 -3.6309 1.8060 -8.4497 -24.0885 0.0000 0.0000 0.0000 27.3071 8.0643 14.6659 -10.8742 -17.8730 62.3723 0.1807 -7.7811 -5.0057 -0.2734 -3.3634 9.2920 4.0154 4.7770 6.9519 0.9609 6.7224 -0.1879 -1.8957 3.2652 -3.7326 -11.6356 -5.9953 -14.2648 10.1908 -7.3994 13.4874 4.4393 -3.3041 7.3032 0.0000 -0.0000 0.0000 -88.7646 39.1060 38.5698 128.3400 -53.6434 -92.4945 -0.0000 0.0000 -40.4901 16.1979 4.8304 1.4012 -7.1250 0.0000 -0.0000 -8.6675 34.9033 2.1696 0.0000 -0.0000 0.0000 82.1196 -12.5727 50.7490 -137.8525 49.2920 -99.9477 0.0000 -0.0000 -2.5677 -16.7895 29.3100 -8.4019 7.1250 -0.0000 -0.0000 8.1472 0.1377 8.2506
0.00 0.00 0.00 4.2350 -21.3531 2.0926 0.0000 0.0000 0.0000 -1.1475 -13.1981 -23.1781 3.8997 12.0257 35.8228 0.1100 -10.3829 -8.9307 1.5270 -7.8022 -22.1149 0.0000 0.0000 0.0000 20.6313 6.9976 4.7328 -16.3784 -19.6826 79.3572 0.1332 -8.5686 -9.1292 -0.6547 -5.1753 14.4093 -0.0966 3.3585 9.7912 0.9901 4.4982 0.5569 0.4569 2.2289 -4.9885 -11.2982 -5.0860 -14.2715 9.2944 -6.0380 13.0532 4.2432 -2.7096 6.9648 0.0000 0.0000 0.0000 -89.3422 33.9068 43.0455 128.6720 -53.5173 -92.7616 -0.0000 0.0000 -43.4850 16.0676 11.6738 3.3353 -7.1250 0.0000 -0.0000 -9.9361 41.9039 0.7673 0.0000 0.0000 0.0000 84.9979 -13.7850 49.3423 -130.7735 52.6787 -94.4423 0.0000 -0.0000 -0.0698 -16.3288 28.9289 -8.0659 7.1250 -0.0000 -0.0000 8.3793 -0.3219 8.4228
0.00 0.00 0.00 9.1065 -25.6995 0.8733 0.0000 0.0000 0.0000 -10.2552 -7.0328 -15.4770 4.4965 12.7932 38.5994 1.3925 -10.5872 -21.2918 2.1072 -9.0858 -26.0641 0.0000 0.0000 0.0000 10.6904 5.2861 -18.7535 -23.0491 -19.7756 98.9470 -0.4333 -1.7087 -13.1741 -0.2033 -2.9032 8.0095 -4.5821 1.2613 11.5484 0.0615 1.0734 0.8286 2.4750 0.6376 -5.6997 -10.6142 -3.6091 -16.5605 9.0719 -3.9632 14.2660 4.2964 -1.6491 7.5047 0.0000 -0.0000 0.0000 -84.5050 18.2892 51.6641 128.1390 -53.7190 -92.3326 -0.0000 0.0000 -42.4977 12.9372 8.4596 1.9355 -7.1250 0.0000 -0.0000 -11.9718 38.3957 1.9810 0.0000 -0.0000 0.0000 89.0520 -19.7002 45.5387 -125.9279 54.5114 -90.5410 0.0000 -0.0000 -2.8425 -19.1376 26.8758 -8.9154 7.1250 -0.0000 -0.0000 6.5176 -1.9278 6.3362
0.00 0.00 0.00 14.1472 -35.6534 0.4809 0.0000 0.0000 0.0000 -22.5120 0.8227 2.5465 3.1390 10.9168 31.9997 0.7983 -1.9426 -16.3349 6.5184 -14.9125 -47.0282 0.0000 0.0000 0.0000 16.5309 9.1603 -50.6308 -19.6429 -19.9969 88.9558 -0.4614 8.1502 -12.5516 -0.4618 4.3591 -12.0893 -7.7402 -1.3414 11.2473 -0.5253 -2.8088 0.6898 4.2366 -1.2144 -5.2459 -7.7228 -1.7506 -22.4022 6.2006 -1.2669 17.3179 3.2408 -0.4049 9.2188 -0.0000 0.0000 0.0000 -81.7297 1.1374 41.2867 138.9119 -48.7015 -100.7472 -0.0000 0.0000 -50.1220 9.0424 10.0551 1.5916 -7.1250 0.0000 -0.0000 -15.6180 39.6748 2.1096 -0.0000 0.0000 0.0000 81.1107 -31.9294 46.6045 -138.9119 48.7015 -100.7472 0.0000 -0.0000 -10.3224 -18.0829 28.8168 -8.9442 7.1250 -0.0000 -0.0000 7.3418 -0.1379 7.3851
0.00 0.00 0.00 16.7836 -41.5262 -1.0878 0.0000 0.0000 0.0000 -26.9148 3.8819 8.3632 2.1440 9.1598 26.2963 -0.0154 -2.3752 -0.0895 4.3968 -12.6705 -38.1472 0.0000 0.0000 0.0000 20.3301 12.7773 -52.2213 -14.7350 -19.3220 74.4372 -0.4141 9.6158 -12.4150 -0.8775 5.9721 -16.7036 -10.0372 -1.3323 11.8150 0.0386 -3.2254 -1.0495 6.2701 -1.1766 -7.2376 -10.0874 -0.5524 -19.3616 6.8364 0.6964 17.1035 4.0751 0.3870 8.4465 -0.0000 -0.0000 0.0000 -82.4604 3.4760 37.7129 142.3246 -46.6307 -103.2708 -0.0000 0.0000 -49.9177 11.2307 9.1660 1.8117 -7.1250 0.0000 -0.0000 -13.5597 38.9736 2.0578 -0.0000 -0.0000 0.0000 76.1167 -35.6394 48.1587 -139.4118 48.4145 -101.1220 0.0000 -0.0000 -8.9544 -16.2301 27.7667 -7.7230 7.1250 -0.0000 -0.0000 8.3324 -1.5062 8.1984
0.00 0.00 0.00 18.4409 -44.9312 -2.2405 0.0000 0.0000 0.0000 -29.8332 3.5752 12.3475 1.6494 8.0942 23.0005 0.6791 -5.9590 18.8613 1.5565 -7.8739 -22.3316 0.0000 0.0000 0.0000 25.5851 11.7557 -50.3552 -9.3818 -17.0472 57.4013 0.3567 13.4707 -4.0598 -0.1372 2.3870 -6.5766 -10.2614 -1.9919 11.4056 -0.2786 -4.1119 -1.0490 6.1636 -1.6321 -6.8542 -9.4241 0.2804 -19.7541 5.6531 1.9226 17.7491 3.7282 0.8694 8.6427 0.0000 0.0000 0.0000 -81.2900 4.5945 36.5681 142.8169 -46.3096 -103.6277 -0.0000 0.0000 -46.4914 12.9333 8.7588 2.0028 -7.1250 0.0000 -0.0000 -12.0347 38.6950 1.9016 0.0000 0.0000 0.0000 75.0741 -34.9655 47.7967 -138.0648 49.1756 -100.1085 0.0000 -0.0000 -8.0261 -15.5020 26.9820 -7.1725 7.1250 -0.0000 -0.0000 8.7009 -2.4077 8.4266
